<svg width="25" height="25" viewBox="0 0 25 25" fill="none" xmlns="http://www.w3.org/2000/svg">
<path d="M16.0352 19.2139C15.5615 19.6582 14.8193 19.6338 14.3799 19.1602C14.0186 18.7744 13.3984 18.3594 12.5 18.3594C11.6016 18.3594 10.9814 18.7744 10.6201 19.1602C10.1807 19.6338 9.43848 19.6582 8.96484 19.2139C8.49121 18.7744 8.4668 18.0322 8.91113 17.5586C9.60449 16.8115 10.8105 16.0156 12.5 16.0156C14.1895 16.0156 15.3955 16.8115 16.0889 17.5586C16.5332 18.0322 16.5088 18.7744 16.0352 19.2139ZM7.05078 11.7188C7.05078 11.2891 7.22168 10.8984 7.50488 10.6152L6.00098 10.1172C5.5957 9.98047 5.37109 9.53613 5.50781 9.12598C5.64453 8.7207 6.08887 8.49609 6.49902 8.63281L11.1865 10.1953C11.5918 10.332 11.7725 10.7764 11.6797 11.1865C11.543 11.5918 11.0986 11.7725 10.6885 11.6797L10.1611 11.5039C10.1709 11.5723 10.1758 11.6455 10.1758 11.7188C10.1758 12.583 9.47266 13.2812 8.61328 13.2812C7.74902 13.2812 7.05078 12.583 7.05078 11.7188ZM17.9883 11.7188C17.9883 12.583 17.2852 13.2812 16.4258 13.2812C15.5615 13.2812 14.8633 12.583 14.8633 11.7188C14.8633 11.6406 14.8682 11.5625 14.8779 11.4893L14.3115 11.6797C13.9014 11.7725 13.457 11.5918 13.3203 11.1865C13.1836 10.7764 13.4082 10.332 13.8135 10.1953L18.501 8.63281C18.9111 8.49609 19.3555 8.7207 19.4922 9.12598C19.585 9.53613 19.4043 9.98047 18.999 10.1172L17.5244 10.6055C17.8076 10.8887 17.9883 11.2842 17.9883 11.7188V11.7188ZM0 12.5C0 5.5957 5.5957 0 12.5 0C19.4043 0 25 5.5957 25 12.5C25 19.4043 19.4043 25 12.5 25C5.5957 25 0 19.4043 0 12.5ZM12.5 22.6562C18.1104 22.6562 22.6562 18.1104 22.6562 12.5C22.6562 6.88965 18.1104 2.34375 12.5 2.34375C6.88965 2.34375 2.34375 6.88965 2.34375 12.5C2.34375 18.1104 6.88965 22.6562 12.5 22.6562Z" fill="currentColor"/>
</svg>