<svg width="25" height="25" viewBox="0 0 25 25" fill="none" xmlns="http://www.w3.org/2000/svg">
<path d="M16.0352 19.2139C15.5615 19.6582 14.8193 19.6338 14.3799 19.1602C14.0186 18.7744 13.3984 18.3594 12.5 18.3594C11.6016 18.3594 10.9814 18.7744 10.6201 19.1602C10.1807 19.6338 9.43848 19.6582 8.96484 19.2139C8.49121 18.7744 8.4668 18.0322 8.91113 17.5586C9.60449 16.8115 10.8105 16.0156 12.5 16.0156C14.1895 16.0156 15.3955 16.8115 16.0889 17.5586C16.5332 18.0322 16.5088 18.7744 16.0352 19.2139ZM0 12.5C0 5.5957 5.5957 0 12.5 0C19.4043 0 25 5.5957 25 12.5C25 19.4043 19.4043 25 12.5 25C5.5957 25 0 19.4043 0 12.5ZM12.5 22.6562C18.1104 22.6562 22.6562 18.1104 22.6562 12.5C22.6562 6.88965 18.1104 2.34375 12.5 2.34375C6.88965 2.34375 2.34375 6.88965 2.34375 12.5C2.34375 18.1104 6.88965 22.6562 12.5 22.6562Z" fill="currentColor"/>
<circle cx="16" cy="11" r="2" fill="currentColor"/>
<circle cx="9" cy="11" r="2" fill="currentColor"/>
</svg>
