<svg width="25" height="25" viewBox="0 0 25 25" fill="none" xmlns="http://www.w3.org/2000/svg">
<path d="M16.0352 16.3336C15.5615 15.8893 14.8193 15.9137 14.3799 16.3873C14.0186 16.7731 13.3984 17.1881 12.5 17.1881C11.6016 17.1881 10.9814 16.7731 10.6201 16.3873C10.1807 15.9137 9.43848 15.8893 8.96484 16.3336C8.49121 16.7731 8.4668 17.5153 8.91113 17.9889C9.60449 18.736 10.8105 19.5319 12.5 19.5319C14.1895 19.5319 15.3955 18.736 16.0889 17.9889C16.5332 17.5153 16.5088 16.7731 16.0352 16.3336ZM0 12.5C0 5.5957 5.5957 0 12.5 0C19.4043 0 25 5.5957 25 12.5C25 19.4043 19.4043 25 12.5 25C5.5957 25 0 19.4043 0 12.5ZM12.5 22.6562C18.1104 22.6562 22.6562 18.1104 22.6562 12.5C22.6562 6.88965 18.1104 2.34375 12.5 2.34375C6.88965 2.34375 2.34375 6.88965 2.34375 12.5C2.34375 18.1104 6.88965 22.6562 12.5 22.6562Z" fill="currentColor"/>
<circle cx="16" cy="11" r="2" fill="currentColor"/>
<circle cx="9" cy="11" r="2" fill="currentColor"/>
</svg>
